# xmcd
#
# Track frame offsets:
#	150
#	18007
#	37493
#	48362
#	60252
#	77077
#	88205
#	102130
#	119521
#	132396
#	149536
#	163953
#	177028
#	192711
#	207575
#	220913
#	238222
#	250562
#	266925
#	281711
#	298144
#
# Disc length: 4165 seconds
#
# Revision: 0
# Processed by: cddbd v1.5.1PL2 Copyright (c) Steve Scherf et al.
# Submitted via: dBpowerAMP V4.0
#
DISCID=51104315
DTITLE=Alan Jackson - GREATEST HITS COLLECTION (1995)
DYEAR=1900
DGENRE=
TTITLE0=Chattahoochee
TTITLE1=Gone Country
TTITLE2=She's Got The Rhythm (And I Got The Blues)
TTITLE3=Little Bitty
TTITLE4=Midnight in Montgomery
TTITLE5=Tall, Tall Trees
TTITLE6=Chasin' That Neon Rainbow
TTITLE7=I'll Try
TTITLE8=Don't Rock The Jukebox
TTITLE9=Livin' on Love
TTITLE10=Summertime Blues
TTITLE11=Love's Got a Hold on You
TTITLE12=(Who Says) You Can't Have it All
TTITLE13=Home
TTITLE14=Wanted
TTITLE15=I Don't Even Know Your Name
TTITLE16=Dallas
TTITLE17=Here in The Real World
TTITLE18=Someday
TTITLE19=Mercury Blues
TTITLE20=I'd Love You All Over Again
EXTD=
EXTT0=
EXTT1=
EXTT2=
EXTT3=
EXTT4=
EXTT5=
EXTT6=
EXTT7=
EXTT8=
EXTT9=
EXTT10=
EXTT11=
EXTT12=
EXTT13=
EXTT14=
EXTT15=
EXTT16=
EXTT17=
EXTT18=
EXTT19=
EXTT20=
PLAYORDER=
